<?xml version="1.0" encoding="UTF-8" standalone="no"?>
<svg
   version="1.1"
   viewBox="-5 -10 85.679703 44.878513"
   id="svg7"
   sodipodi:docname="razor-enhanced-vscode-white.svg"
   inkscape:version="1.3.2 (091e20ef0f, 2023-11-25)"
   width="85.679703"
   height="44.878513"
   xmlns:inkscape="http://www.inkscape.org/namespaces/inkscape"
   xmlns:sodipodi="http://sodipodi.sourceforge.net/DTD/sodipodi-0.dtd"
   xmlns="http://www.w3.org/2000/svg"
   xmlns:svg="http://www.w3.org/2000/svg">
  <defs
     id="defs7" />
  <sodipodi:namedview
     id="namedview7"
     pagecolor="#505050"
     bordercolor="#eeeeee"
     borderopacity="1"
     inkscape:showpageshadow="0"
     inkscape:pageopacity="0"
     inkscape:pagecheckerboard="0"
     inkscape:deskcolor="#505050"
     inkscape:zoom="14.044444"
     inkscape:cx="42.828324"
     inkscape:cy="24.280064"
     inkscape:window-width="3770"
     inkscape:window-height="2096"
     inkscape:window-x="70"
     inkscape:window-y="27"
     inkscape:window-maximized="1"
     inkscape:current-layer="g6" />
  <g
     id="g6"
     transform="translate(-12.160094,-37.558594)">
    <path
       d="m 90.211,35.043 h -4.1641 l 2.2109,-3.4336 c 0.51953,-0.8125 0.55469,-1.8359 0.08984,-2.6797 -0.46094,-0.84375 -1.3477,-1.3672 -2.3047,-1.3672 l -72.082,-0.0039 c -0.96094,0 -1.8477,0.52344 -2.3047,1.3672 -0.46094,0.84766 -0.42969,1.8711 0.09375,2.6836 l 2.207,3.4297 h -4.1641 c -1.4492,0 -2.6328,1.1797 -2.6328,2.6328 v 24.648 c 0,1.4492 1.1797,2.6328 2.6328,2.6328 h 4.1641 l -2.2109,3.4297 c -0.51953,0.8125 -0.55469,1.8398 -0.08984,2.6797 0.46094,0.84766 1.3477,1.3672 2.3047,1.3672 l 72.078,0.0078 c 0.96094,0 1.8477,-0.52344 2.3047,-1.3672 0.46094,-0.84375 0.42969,-1.8711 -0.09375,-2.6836 l -2.207,-3.4297 h 4.1641 c 1.4492,0 2.6328,-1.1797 2.6328,-2.6328 v -24.648 c 0,-1.4492 -1.1797,-2.6328 -2.6328,-2.6328 z m -0.73828,26.543 h -4.7773 c -0.96094,0 -1.8477,0.52344 -2.3047,1.3672 -0.46094,0.84766 -0.42969,1.875 0.09375,2.6836 l 2.207,3.4297 -69.383,0.0039 2.2109,-3.4336 c 0.51953,-0.80859 0.55469,-1.8359 0.08984,-2.6797 -0.46094,-0.84375 -1.3477,-1.3672 -2.3047,-1.3672 h -4.7773 v -23.176 h 4.7773 c 0.96094,0 1.8477,-0.52344 2.3047,-1.3672 0.46094,-0.84375 0.42969,-1.8711 -0.09375,-2.6836 l -2.207,-3.4297 69.383,-0.0039 -2.2109,3.4297 c -0.51953,0.80859 -0.55469,1.8359 -0.08984,2.6797 0.46094,0.84375 1.3477,1.3672 2.3047,1.3672 h 4.7773 z"
       id="path1"
       style="fill:#ffffff" />
    <text
       xml:space="preserve"
       style="font-style:normal;font-variant:normal;font-weight:normal;font-stretch:normal;font-size:42.9963px;font-family:'Arial Black';-inkscape-font-specification:'Arial Black, ';fill:#ffffff;stroke-width:1.07491"
       x="17.91511"
       y="63.314281"
       id="text7"
       transform="scale(0.96082421,1.0407731)"><tspan
         sodipodi:role="line"
         id="tspan7"
         x="17.91511"
         y="63.314281"
         style="font-style:normal;font-variant:normal;font-weight:normal;font-stretch:normal;font-family:'Arial Black';-inkscape-font-specification:'Arial Black, ';fill:#ffffff;stroke-width:1.07491">R</tspan></text>
    <text
       xml:space="preserve"
       style="font-style:normal;font-variant:normal;font-weight:normal;font-stretch:normal;font-size:44.7494px;font-family:'Arial Black';-inkscape-font-specification:'Arial Black, ';fill:#ffffff;stroke-width:1.11873"
       x="49.196362"
       y="66.3797"
       id="text8"><tspan
         sodipodi:role="line"
         id="tspan8"
         x="49.196362"
         y="66.3797"
         style="stroke-width:1.11873;fill:#ffffff">E</tspan></text>
    <text
       xml:space="preserve"
       style="font-style:normal;font-variant:normal;font-weight:normal;font-stretch:normal;font-size:40px;font-family:'Abyssinica SIL';-inkscape-font-specification:'Abyssinica SIL';fill:#ffffff"
       x="25.461515"
       y="70.197227"
       id="text9"><tspan
         sodipodi:role="line"
         id="tspan9"
         x="25.461515"
         y="70.197227" /></text>
  </g>
</svg>
