<?xml version="1.0" encoding="UTF-8" standalone="no"?>
<svg
   version="1.1"
   viewBox="-5 -10 113.1405 68.383034"
   id="svg7"
   sodipodi:docname="razor-enhanced-vscode-black.svg"
   inkscape:version="1.3.2 (091e20ef0f, 2023-11-25)"
   width="113.1405"
   height="68.383034"
   xmlns:inkscape="http://www.inkscape.org/namespaces/inkscape"
   xmlns:sodipodi="http://sodipodi.sourceforge.net/DTD/sodipodi-0.dtd"
   xmlns="http://www.w3.org/2000/svg"
   xmlns:svg="http://www.w3.org/2000/svg">
  <defs
     id="defs7" />
  <sodipodi:namedview
     id="namedview7"
     pagecolor="#505050"
     bordercolor="#eeeeee"
     borderopacity="1"
     inkscape:showpageshadow="0"
     inkscape:pageopacity="0"
     inkscape:pagecheckerboard="0"
     inkscape:deskcolor="#505050"
     inkscape:zoom="14.044444"
     inkscape:cx="57.709654"
     inkscape:cy="35.743672"
     inkscape:window-width="3770"
     inkscape:window-height="2096"
     inkscape:window-x="70"
     inkscape:window-y="27"
     inkscape:window-maximized="1"
     inkscape:current-layer="g6"
     showguides="false">
    <sodipodi:guide
       position="-0.22760248,68.517282"
       orientation="0,115.67085"
       id="guide1"
       inkscape:locked="false" />
    <sodipodi:guide
       position="115.44325,68.517282"
       orientation="68.383034,0"
       id="guide2"
       inkscape:locked="false" />
    <sodipodi:guide
       position="115.44325,0.13424902"
       orientation="0,-115.67085"
       id="guide3"
       inkscape:locked="false" />
    <sodipodi:guide
       position="-0.22760248,0.13424902"
       orientation="-68.383034,0"
       id="guide4"
       inkscape:locked="false" />
  </sodipodi:namedview>
  <g
     id="g6"
     transform="matrix(1.7033947,0,0,1.7033947,-32.407842,-61.332138)">
    <path
       d="m 90.211,35.043 h -4.1641 l 2.2109,-3.4336 c 0.51953,-0.8125 0.55469,-1.8359 0.08984,-2.6797 -0.46094,-0.84375 -1.3477,-1.3672 -2.3047,-1.3672 l -72.082,-0.0039 c -0.96094,0 -1.8477,0.52344 -2.3047,1.3672 -0.46094,0.84766 -0.42969,1.8711 0.09375,2.6836 l 2.207,3.4297 h -4.1641 c -1.4492,0 -2.6328,1.1797 -2.6328,2.6328 v 24.648 c 0,1.4492 1.1797,2.6328 2.6328,2.6328 h 4.1641 l -2.2109,3.4297 c -0.51953,0.8125 -0.55469,1.8398 -0.08984,2.6797 0.46094,0.84766 1.3477,1.3672 2.3047,1.3672 l 72.078,0.0078 c 0.96094,0 1.8477,-0.52344 2.3047,-1.3672 0.46094,-0.84375 0.42969,-1.8711 -0.09375,-2.6836 l -2.207,-3.4297 h 4.1641 c 1.4492,0 2.6328,-1.1797 2.6328,-2.6328 v -24.648 c 0,-1.4492 -1.1797,-2.6328 -2.6328,-2.6328 z m -6.894162,24.736124 h -4.032267 c -0.811079,0 -1.559546,0.441809 -1.945276,1.153982 -0.389055,0.715465 -0.362679,1.582589 0.07913,2.265085 l 1.862813,2.894829 -58.562535,0.0033 1.866104,-2.898121 c 0.438508,-0.682488 0.468184,-1.549586 0.07583,-2.261793 -0.389055,-0.712165 -1.137523,-1.153982 -1.945276,-1.153982 h -4.032267 v -19.56164 h 4.032267 c 0.811079,0 1.559546,-0.441809 1.945276,-1.153982 0.389055,-0.712165 0.362679,-1.579297 -0.07913,-2.265085 l -1.862813,-2.894829 58.562535,-0.0033 -1.866104,2.894829 c -0.438508,0.682488 -0.468184,1.549586 -0.07583,2.261793 0.389055,0.712165 1.137523,1.153982 1.945276,1.153982 h 4.032267 z"
       id="path1"
       style="display:none;fill:#000000;fill-opacity:1;stroke-width:1;stroke-dasharray:none"
       sodipodi:nodetypes="cccccccccssssccccccccssscccsccccccsccsccccccscc" />
    <text
       xml:space="preserve"
       style="font-style:normal;font-variant:normal;font-weight:normal;font-stretch:normal;font-size:51.9939px;font-family:'Arial Black';-inkscape-font-specification:'Arial Black, ';fill:#1a1a1a;stroke-width:1.29985"
       x="52.390415"
       y="65.156425"
       id="text7"
       transform="scale(0.92709312,1.0786403)"><tspan
         sodipodi:role="line"
         id="tspan7"
         x="52.390411"
         y="65.156425"
         style="font-style:normal;font-variant:normal;font-weight:normal;font-stretch:normal;font-family:'Arial Black';-inkscape-font-specification:'Arial Black, ';text-align:center;text-anchor:middle;fill:#1a1a1a;stroke-width:1.29985">RE</tspan></text>
  </g>
</svg>
